<?xml version="1.0" encoding="UTF-8"?>
<svg id="_图层_2" data-name="图层 2" xmlns="http://www.w3.org/2000/svg" viewBox="0 0 126.92 171.75">
  <defs>
    <style>
      .cls-1, .cls-2 {
        stroke-width: 0px;
      }

      .cls-2 {
        fill: #fff;
      }
    </style>
  </defs>
  <g id="_图层_1-2" data-name="图层 1">
    <g>
      <rect class="cls-1" width="113.96" height="158.83" transform="translate(113.96 158.83) rotate(180)"/>
      <path class="cls-2" d="m116.24,160.66c-7.12,7.4-16.88,11.1-29.28,11.1s-25.1-1.23-38.11-3.7l4.11-32.87c13.56,3.15,22.88,4.73,27.94,4.73,6.44,0,9.66-2.6,9.66-7.81,0-2.06-1.54-4.04-4.62-5.96-3.08-1.92-6.81-3.94-11.2-6.06-4.38-2.13-8.76-4.66-13.15-7.6-4.38-2.95-8.12-7.16-11.2-12.64-3.08-5.48-4.62-11.78-4.62-18.9,0-13.02,3.49-23.08,10.48-30.2,6.99-7.12,16.88-10.68,29.69-10.68s25.31,1.99,37.5,5.96l-2.26,30.61c-14.66-4.25-24.86-6.37-30.61-6.37s-8.63,2.53-8.63,7.6c0,2.6,1.54,5,4.62,7.19,3.08,2.19,6.82,4.38,11.2,6.57,4.39,2.19,8.8,4.73,13.25,7.6,4.45,2.88,8.22,7.05,11.3,12.53,3.08,5.48,4.62,11.98,4.62,19.52,0,12.19-3.56,21.99-10.68,29.38Z"/>
      <circle class="cls-2" cx="28.97" cy="36.63" r="12.85"/>
    </g>
  </g>
</svg>