<?xml version="1.0" encoding="UTF-8"?>
<svg id="_图层_2" data-name="图层 2" xmlns="http://www.w3.org/2000/svg" xmlns:xlink="http://www.w3.org/1999/xlink" viewBox="0 0 263.21 157.33">
  <defs>
    <style>
      .cls-1 {
        isolation: isolate;
      }

      .cls-2, .cls-3, .cls-4 {
        stroke-width: 0px;
      }

      .cls-3 {
        fill: none;
      }

      .cls-4, .cls-5 {
        fill: #fff;
      }

      .cls-6 {
        clip-path: url(#clippath);
      }

      .cls-5 {
        stroke: #000;
        stroke-miterlimit: 10;
        stroke-width: 3px;
      }
    </style>
    <clipPath id="clippath">
      <path class="cls-3" d="m52.12,108.11l.12-40.76c0-2.75,2.7-5.69,8.09-8.82l-.12,40.76c-5.38,3.13-8.08,6.07-8.09,8.82Z"/>
    </clipPath>
  </defs>
  <g id="_图层_1-2" data-name="图层 1">
    <g>
      <g class="cls-1">
        <path class="cls-2" d="m149.68,46.63c-.27-3-3.18-6.12-8.75-9.33-.68-.39-1.35-.76-2.01-1.12-.22-.12-.44-.23-.67-.34-.44-.23-.87-.46-1.3-.66-.26-.13-.52-.24-.78-.36-.38-.18-.77-.37-1.15-.53-.27-.12-.54-.22-.8-.34-.34-.14-.69-.3-1.03-.43-.02,0-.03-.01-.05-.02-.39-.15-.77-.28-1.15-.42-.24-.09-.48-.18-.72-.26-.43-.15-.86-.27-1.28-.4-.17-.05-.35-.12-.53-.17,0,0,0,0-.01,0-.72-.2-1.42-.37-2.11-.52-.08-.02-.15-.04-.23-.06-.38-.08-.76-.15-1.14-.21-.28-.05-.56-.09-.83-.13-.13-.02-.24-.03-.37-.04-.31-.04-.62-.07-.92-.1-.14-.01-.28-.04-.42-.05-.12,0-.23-.01-.34-.02-.21-.01-.41-.02-.61-.03-.13,0-.27-.02-.4-.02-.15,0-.29,0-.43,0-.16,0-.32,0-.47,0-.08,0-.17,0-.25,0-.22,0-.42.03-.64.04-.11,0-.23.01-.33.02-.03,0-.06,0-.09,0-.34.03-.67.08-.99.14-.03,0-.05,0-.08.01,0,0,0,0,0,0-.01,0-.03,0-.04,0-.44.08-.85.19-1.25.31-.04.01-.09.02-.13.03-.17.05-.32.12-.48.18-.1.04-.21.07-.31.12-.3.13-.59.27-.87.43-.05.03-.1.06-.15.09-.08.05-.14.1-.22.14-.14.09-.28.18-.41.27-.09.07-.18.13-.26.2-.12.09-.23.18-.34.28-.03.03-.07.05-.1.08-.04.03-.06.07-.1.11-.14.14-.27.27-.39.42-.03.04-.07.07-.1.11-.02.02-.03.05-.05.07-.08.1-.14.21-.21.31-.04.06-.08.11-.11.17-.01.02-.02.04-.03.06-.05.09-.08.18-.12.26-.03.07-.07.14-.1.21,0,.02-.01.04-.02.06-.03.09-.05.18-.08.27-.02.07-.05.14-.06.22,0,.02,0,.04,0,.06-.02.11-.03.23-.04.34,0,.07-.02.13-.02.2,0,.03,0,.06,0,.1l-.12,40.76c0-.1.02-.2.02-.3,0-.11.02-.23.04-.34.02-.09.04-.18.07-.28.02-.09.05-.18.08-.27.03-.09.07-.18.11-.27.04-.09.08-.18.12-.27.04-.08.09-.15.14-.22.07-.11.13-.21.21-.31.05-.06.1-.12.15-.18.12-.14.25-.28.39-.42.07-.06.13-.13.2-.19.11-.09.22-.19.34-.28.09-.07.17-.14.26-.2.13-.09.27-.18.41-.27.12-.08.23-.16.36-.23.27-.16.56-.3.87-.43.1-.04.2-.08.3-.12.2-.08.4-.15.61-.22.4-.12.81-.23,1.25-.31.02,0,.03,0,.05-.01.03,0,.05,0,.08-.01.35-.06.71-.11,1.09-.14.11-.01.22-.01.33-.02.29-.02.58-.04.89-.04.15,0,.31,0,.47,0,.27,0,.55,0,.83.02.2,0,.41.02.61.03.25.02.5.04.76.07.3.03.61.06.92.1.39.05.79.1,1.2.17.45.07.91.17,1.37.27.69.15,1.39.32,2.11.52.17.05.35.11.53.16.43.13.86.26,1.29.4.24.08.48.18.72.26.38.14.76.27,1.15.42.35.14.72.3,1.07.45.27.11.53.22.8.34.38.17.76.35,1.15.53.26.12.51.23.78.36.43.21.87.44,1.3.66.22.12.44.22.67.34.66.35,1.33.73,2.01,1.12,5.57,3.21,8.49,6.33,8.75,9.33.02.2.03.4.03.6l.12-40.76c0-.2,0-.4-.03-.6Z"/>
        <path class="cls-2" d="m92.65,77.94c-2.24-3.07-6.77-7.58-13.59-13.51-8.18-7.29-14.48-13.6-18.9-18.93-4.01-4.84-6.01-10.03-5.99-15.55l-.12,40.76c-.02,5.52,1.98,10.71,5.99,15.55,4.41,5.33,10.72,11.63,18.9,18.93,6.82,5.93,11.35,10.43,13.59,13.51.95,1.3,1.42,2.49,1.41,3.56l.12-40.76c0-1.07-.47-2.26-1.41-3.56Z"/>
        <g class="cls-1">
          <g class="cls-6">
            <g class="cls-1">
              <path class="cls-2" d="m60.32,58.54l-.12,40.76c-.24.14-.48.28-.7.42l.12-40.76c.23-.14.46-.28.7-.42"/>
              <path class="cls-2" d="m59.62,58.95l-.12,40.76c-1.84,1.11-3.34,2.21-4.49,3.27l.12-40.76c1.15-1.07,2.65-2.16,4.49-3.27"/>
              <path class="cls-2" d="m55.13,62.22l-.12,40.76c-.56.51-1.03,1.02-1.43,1.52l.12-40.76c.4-.5.87-1.01,1.43-1.52"/>
              <path class="cls-2" d="m53.7,63.75l-.12,40.76c-.29.36-.53.73-.73,1.08l.12-40.76c.2-.36.45-.72.73-1.08"/>
              <path class="cls-2" d="m52.97,64.83l-.12,40.76c-.17.3-.31.59-.42.88l.12-40.76c.11-.29.25-.59.42-.88"/>
              <path class="cls-2" d="m52.55,65.71l-.12,40.76c-.1.26-.17.53-.23.79l.12-40.76c.05-.26.13-.52.23-.79"/>
              <path class="cls-2" d="m52.32,66.5l-.12,40.76c-.05.25-.08.5-.09.74l.12-40.76c0-.25.04-.49.09-.74"/>
              <path class="cls-2" d="m52.24,67.24l-.12,40.76s0,.07,0,.11l.12-40.76s0-.07,0-.11"/>
            </g>
          </g>
        </g>
        <path class="cls-2" d="m198.94,56.27c0,.3-.02.59-.04.88-.01.21-.02.43-.05.64-.02.22-.06.45-.09.67-.03.21-.06.42-.1.63-.04.23-.1.46-.15.69-.05.19-.09.39-.14.58-.06.23-.14.46-.21.69-.06.19-.12.38-.19.57-.08.22-.17.43-.26.64-.09.21-.17.42-.26.62-.1.21-.21.42-.31.63-.1.21-.2.41-.32.61-.09.17-.2.34-.3.51-.16.27-.32.53-.5.8-.12.18-.25.36-.37.53-.18.25-.36.5-.55.75-.12.16-.25.31-.37.46-.31.39-.64.77-.99,1.16-.11.12-.21.24-.32.36-.46.48-.94.97-1.45,1.44-.13.12-.28.25-.42.37-.34.31-.69.61-1.05.91-.19.16-.38.31-.57.46-.34.28-.7.55-1.06.82-.21.16-.42.31-.63.47-.39.28-.79.56-1.2.84-.2.14-.4.28-.61.41-.55.36-1.11.72-1.7,1.08-.09.06-.18.11-.27.17l-.12,40.76s.04-.02.06-.04c.07-.05.14-.09.22-.14.58-.36,1.14-.71,1.69-1.07.21-.14.41-.28.61-.42.41-.28.81-.56,1.2-.84.21-.16.42-.31.63-.47.36-.27.72-.55,1.06-.82.19-.15.39-.31.57-.46.36-.3.71-.61,1.05-.92.11-.1.23-.2.34-.3.03-.02.05-.05.07-.07.51-.48,1-.96,1.45-1.44.11-.12.21-.24.32-.36.35-.38.68-.77.99-1.16.07-.08.15-.16.21-.24.06-.07.1-.15.16-.22.19-.25.37-.5.55-.76.12-.18.25-.35.37-.53.18-.27.34-.53.5-.8.08-.13.17-.26.24-.39.02-.04.04-.08.06-.12.11-.2.21-.41.32-.61.11-.21.22-.42.32-.63.09-.21.18-.41.26-.62.07-.17.15-.34.22-.51.02-.04.03-.09.04-.13.07-.19.13-.38.19-.57.07-.23.15-.46.21-.69.05-.19.1-.39.14-.58.04-.17.09-.33.12-.5.01-.06.02-.12.03-.18.04-.21.07-.42.1-.63.03-.22.07-.44.09-.67.02-.21.03-.43.05-.64,0-.16.03-.31.03-.47,0-.14,0-.28,0-.41h0s.12-40.76.12-40.76Z"/>
        <polygon class="cls-2" points="182.24 76.98 182.12 117.74 143.68 95.54 143.8 54.78 182.24 76.98"/>
        <polygon class="cls-2" points="184.45 75.69 184.34 116.45 182.12 117.74 182.24 76.98 184.45 75.69"/>
        <path class="cls-2" d="m153.43,88.99c-.01.35-.04.69-.09,1.04-.01.11-.04.23-.05.34-.04.23-.07.46-.12.69-.03.15-.07.3-.11.44-.05.2-.1.4-.16.6-.05.15-.1.3-.15.45-.07.19-.13.38-.21.57-.07.17-.14.34-.21.51-.08.18-.16.36-.25.55-.08.17-.17.34-.26.5-.09.17-.19.35-.29.52-.13.22-.27.44-.41.66-.1.15-.2.31-.3.46-.16.23-.33.46-.5.68-.1.14-.2.27-.31.41-.35.44-.72.87-1.12,1.3-.09.1-.19.19-.28.29-.33.35-.69.7-1.05,1.05-.13.12-.25.24-.38.35-.38.34-.77.69-1.18,1.03-.07.06-.13.11-.2.17-.48.39-.99.79-1.52,1.18-.15.11-.31.22-.46.33-.4.29-.81.57-1.23.86-.19.13-.38.25-.57.38-.45.29-.91.59-1.39.88-.21.13-.41.26-.62.38-.84.49-1.68.95-2.52,1.4-.23.12-.46.24-.69.36-.71.37-1.42.74-2.14,1.09-.15.07-.3.15-.45.22-.85.41-1.69.8-2.55,1.17-.21.09-.43.18-.64.28-.69.3-1.39.59-2.09.87-.21.08-.42.17-.63.25-.86.33-1.73.66-2.6.96-.17.06-.33.11-.5.17-.7.24-1.4.46-2.1.68-.33.1-.67.21-1.01.3-.62.18-1.24.36-1.86.52-.31.08-.63.17-.94.25-.76.19-1.53.38-2.3.55-.17.04-.33.08-.5.11-.93.2-1.86.38-2.8.55-.5.09-1,.16-1.51.24-.52.08-1.05.17-1.57.24-.51.07-1.01.12-1.52.18-.54.06-1.07.13-1.61.18-.29.03-.58.05-.87.07-.68.06-1.37.11-2.05.15-.36.02-.71.04-1.07.05-.65.03-1.31.05-1.97.07-.31,0-.63.01-.94.02-.78,0-1.56,0-2.35,0-.19,0-.38,0-.57,0-.97-.02-1.94-.06-2.92-.12-.26-.01-.52-.04-.78-.05-.89-.06-1.78-.12-2.68-.21-.99-.09-1.98-.21-2.97-.33-.3-.04-.61-.08-.91-.12-.62-.08-1.24-.17-1.87-.26-.66-.1-1.33-.2-1.99-.31-.49-.08-.97-.16-1.46-.25-.68-.12-1.36-.25-2.04-.39-.45-.09-.9-.18-1.35-.27-1.28-.27-2.56-.55-3.83-.87-.15-.04-.31-.08-.46-.12-1.13-.28-2.26-.58-3.38-.9-.56-.16-1.12-.32-1.67-.48-.43-.13-.85-.25-1.28-.38-.64-.2-1.28-.4-1.92-.61-.39-.13-.78-.25-1.18-.38-.73-.25-1.47-.51-2.2-.77-.3-.11-.59-.21-.89-.31-1.03-.37-2.05-.76-3.07-1.17-1.44-.57-2.87-1.17-4.31-1.79-.36-.15-.71-.31-1.07-.47-1.41-.63-2.82-1.27-4.23-1.96-.03-.02-.06-.03-.09-.04-1.44-.7-2.87-1.43-4.3-2.19-.35-.19-.71-.37-1.06-.56-1.43-.77-2.87-1.56-4.3-2.38C19.51,87.34,7.32,76.46,2.89,66.2c-.93-2.15-1.39-4.3-1.39-6.43l-.12,40.76c0,2.13.46,4.28,1.39,6.43,4.44,10.26,16.63,21.14,36.56,32.64,1.43.83,2.86,1.61,4.3,2.38.35.19.71.38,1.06.56,1.43.75,2.87,1.49,4.3,2.19.03.01.06.03.09.04,1.41.68,2.82,1.33,4.23,1.96.36.16.71.31,1.07.47,1.44.62,2.87,1.23,4.31,1.79.01,0,.02.01.04.02,1.01.4,2.02.78,3.04,1.15.3.11.6.21.9.32.73.26,1.46.52,2.19.77.39.13.79.26,1.18.39.64.21,1.28.41,1.91.61.43.13.85.26,1.28.38.4.12.8.25,1.21.36.16.04.31.08.47.12,1.13.32,2.25.62,3.38.9.15.04.31.08.46.12,1.28.31,2.55.6,3.83.87.11.02.23.05.34.08.34.07.68.13,1.01.19.68.13,1.36.27,2.04.39.49.09.97.17,1.46.25.66.11,1.33.22,1.99.31.22.03.45.07.67.11.4.06.79.1,1.19.16.3.04.61.08.91.12.99.12,1.98.23,2.97.33.4.04.81.07,1.21.11.49.04.98.07,1.47.1.26.02.52.04.78.05.93.05,1.85.09,2.78.12.05,0,.1,0,.14,0,.19,0,.38,0,.57,0,.79.01,1.57.02,2.35,0,.31,0,.63-.01.94-.02.32,0,.64,0,.95-.02.34-.01.68-.04,1.01-.05.36-.02.72-.03,1.07-.05.69-.04,1.37-.09,2.05-.15.29-.02.58-.04.87-.07.08,0,.16-.01.24-.02.46-.05.91-.11,1.37-.16.51-.06,1.02-.11,1.52-.18.53-.07,1.05-.16,1.57-.24.5-.08,1.01-.15,1.51-.24.06-.01.13-.02.2-.03.87-.16,1.74-.33,2.6-.52.17-.04.33-.08.5-.11.77-.17,1.54-.35,2.3-.55.31-.08.63-.17.94-.25.62-.17,1.24-.34,1.86-.52.34-.1.67-.2,1.01-.3.24-.07.48-.14.72-.22.46-.15.92-.31,1.38-.46.17-.06.33-.11.5-.17.87-.3,1.74-.62,2.6-.96.21-.08.42-.17.63-.25.7-.28,1.39-.57,2.09-.86.21-.09.43-.18.64-.28.85-.38,1.7-.77,2.55-1.17.15-.07.3-.15.45-.22.72-.35,1.43-.71,2.14-1.09.23-.12.46-.24.69-.36.84-.45,1.68-.92,2.52-1.4.09-.06.18-.11.27-.17.12-.07.23-.15.34-.22.48-.29.94-.59,1.39-.88.19-.13.38-.25.57-.38.42-.28.83-.57,1.23-.86.15-.11.31-.22.46-.33.53-.39,1.04-.78,1.52-1.18.07-.06.13-.11.2-.17.41-.34.8-.68,1.18-1.03.05-.05.12-.1.17-.15.07-.07.14-.14.21-.21.37-.35.72-.7,1.05-1.05.09-.1.19-.19.28-.29.4-.43.77-.86,1.12-1.3.02-.03.05-.06.07-.08.09-.11.16-.22.24-.33.17-.23.34-.45.5-.68.11-.15.2-.31.3-.46.14-.22.28-.44.41-.66.04-.07.09-.14.13-.21.06-.1.11-.21.16-.31.09-.17.18-.34.26-.5.09-.18.17-.37.25-.55.07-.17.15-.34.21-.51.03-.07.06-.14.09-.21.05-.12.08-.25.12-.37.05-.15.1-.3.15-.45.06-.2.11-.4.16-.6.04-.15.08-.3.11-.44,0-.04.02-.09.03-.13.04-.18.06-.37.09-.56.02-.11.04-.23.05-.34.04-.34.07-.69.09-1.04,0-.05,0-.1,0-.14,0-.2,0-.4,0-.6l.12-40.76c0,.25,0,.49-.01.74Z"/>
        <path class="cls-5" d="m167.11,20.36c16.34,9.44,26.49,19.11,30.43,29,3.94,9.9-.42,18.68-13.09,26.33l-2.21,1.29-38.44-22.19.74-.43c3.69-2.15,5.4-4.72,5.14-7.72-.27-3-3.18-6.12-8.75-9.33s-10.44-5.09-14.94-5.84c-4.51-.75-7.93-.45-10.27.91-3.32,1.93-3.81,4.5-1.44,7.72,2.37,3.22,7.08,7.86,14.15,13.94,8.18,7.15,14.44,13.3,18.8,18.45,4.34,5.15,6.41,10.65,6.2,16.51-.22,5.86-4.69,11.4-13.42,16.62-15.01,8.72-31.25,12.24-48.72,10.56-17.48-1.68-34.75-7.45-51.84-17.32C19.51,87.34,7.32,76.46,2.89,66.2c-4.44-10.26,1.76-20.29,18.62-30.08l38.82,22.41c-6.39,3.72-9,7.17-7.81,10.34,1.19,3.18,5.31,6.81,12.37,10.89,5.2,3,10.06,5.16,14.57,6.48,4.51,1.32,8.5.99,11.95-1.02,3.07-1.78,3.49-4.22,1.25-7.3-2.24-3.07-6.77-7.58-13.59-13.51-8.18-7.29-14.48-13.6-18.9-18.93-4.41-5.32-6.38-11.06-5.93-17.21.46-6.15,5.42-11.98,14.89-17.48C83.03,2.74,98.68-.09,116.1,2.34c17.41,2.43,34.42,8.44,51.01,18.02Z"/>
      </g>
      <path class="cls-4" d="m240.02,102.6c0-14.39-8.8-23.19-23.19-23.19,14.39,0,23.19-8.8,23.19-23.19,0,14.39,8.8,23.19,23.19,23.19-14.39,0-23.19,8.8-23.19,23.19Z"/>
    </g>
  </g>
</svg>